<?xml version="1.0" encoding="UTF-8" standalone="no"?>
<svg width="879px" height="256px" viewBox="0 0 879 256" version="1.1" xmlns="http://www.w3.org/2000/svg" xmlns:xlink="http://www.w3.org/1999/xlink">
    <!-- Generator: Sketch 3.8.1 (29687) - http://www.bohemiancoding.com/sketch -->
    <title>full-lifeslice-logo-light</title>
    <desc>Created with Sketch.</desc>
    <defs>
        <linearGradient x1="50%" y1="0%" x2="50%" y2="100%" id="linearGradient-1">
            <stop stop-color="#FFFFFF" stop-opacity="0.5" offset="0%"></stop>
            <stop stop-color="#00043C" stop-opacity="0.94" offset="100%"></stop>
        </linearGradient>
    </defs>
    <g id="Page-1" stroke="none" stroke-width="1" fill="none" fill-rule="evenodd">
        <g id="full-lifeslice-logo-light">
            <path d="M385.787734,112.405211 C385.787734,109.369342 384.692602,106.75456 382.528063,104.588447 C380.361686,102.422333 377.750642,101.324566 374.716979,101.324566 C371.784378,101.324566 369.232133,102.413139 367.058406,104.588447 C364.884679,106.763754 363.796897,109.38773 363.796897,112.405211 L363.796897,176.300041 C363.796897,179.216387 364.858955,181.788876 366.98307,183.964184 C369.105347,186.139491 371.683317,187.226226 374.716979,187.226226 C377.750642,187.226226 380.352499,186.163396 382.528063,184.039575 C384.701789,181.913915 385.787734,179.33407 385.787734,176.300041 L385.787734,112.405211 Z M363.796897,78.409366 C363.796897,81.4433958 364.893867,84.0324346 367.058406,86.1489003 C369.222945,88.265366 371.784378,89.335551 374.716979,89.335551 C377.750642,89.335551 380.352499,88.2727212 382.528063,86.1489003 C384.701789,84.0232406 385.787734,81.4433958 385.787734,78.409366 C385.787734,75.3734973 384.692602,72.7844585 382.528063,70.6698316 C380.361686,68.5515272 377.750642,67.4813421 374.716979,67.4813421 C371.784378,67.4813421 369.222945,68.5515272 367.058406,70.6698316 C364.893867,72.7844585 363.796897,75.3734973 363.796897,78.409366 L363.796897,78.409366 Z M442.014304,137.063599 C441.740522,139.413593 441.604549,141.816912 441.604549,144.275396 C441.604549,146.597808 441.740522,148.872411 442.014304,151.097366 L442.014304,137.063599 Z M442.014304,73.481366 L442.014304,79.8601839 C441.712959,81.0002436 441.242567,82.0097481 440.606803,82.8868585 C439.394073,84.5546555 437.016387,85.3894734 433.477421,85.3894734 C429.129967,85.3894734 425.993407,86.3805899 424.075089,88.349951 C422.158608,90.3193122 421.193936,93.989569 421.193936,99.3515272 L421.193936,101.324566 L431.963346,101.324566 C433.874314,101.324566 435.526199,102.008602 436.891439,103.374835 C438.256679,104.741067 438.93838,106.38496 438.93838,108.308351 C438.93838,110.331038 438.256679,112.000673 436.891439,113.31542 C435.526199,114.630166 433.883501,115.288459 431.963346,115.288459 L421.193936,115.288459 L421.193936,176.300041 C421.193936,179.232936 420.107992,181.788876 417.932428,183.964184 C415.758701,186.139491 413.206456,187.226226 410.273854,187.226226 C407.242029,187.226226 404.638335,186.139491 402.464608,183.964184 C400.289044,181.788876 399.2031,179.225581 399.2031,176.300041 L399.2031,99.3515272 C399.2031,94.605569 399.587131,90.2420824 400.340493,86.2996824 C401.095693,82.3591212 402.442559,78.986751 404.360877,76.2083152 C406.277358,73.4298794 408.908614,71.2747988 412.245459,69.7577839 C415.582304,68.240769 419.828696,67.4813421 424.986473,67.4813421 C430.243474,67.4813421 434.464142,68.0385003 437.648477,69.1509779 C439.899377,69.9361481 441.354653,71.3814496 442.014304,73.481366 L442.014304,73.481366 Z M350.989734,78.409366 C350.989734,75.3734973 349.88909,72.7789421 347.730063,70.6698316 C345.571036,68.5588824 342.952642,67.4813421 339.91898,67.4813421 C336.988215,67.4813421 334.419433,68.5588824 332.260406,70.6698316 C330.103217,72.7789421 329.000735,75.4029182 329.000735,78.409366 L329.000735,176.300041 C329.000735,179.203515 330.062792,181.788876 332.18507,183.964184 C334.309185,186.139491 336.887155,187.226226 339.91898,187.226226 C342.952642,187.226226 345.556336,186.163396 347.730063,184.039575 C349.903789,181.913915 350.989734,179.33407 350.989734,176.300041 L350.989734,78.409366 Z M442.014304,79.8601839 L442.014304,73.481366 C442.288087,74.35296 442.425898,75.33856 442.425898,76.4363272 C442.425898,77.6848764 442.288087,78.8267749 442.014304,79.8601839 L442.014304,79.8601839 Z M482.703232,99.353366 L482.703232,117.261497 C479.430699,117.278047 476.573433,117.809461 474.135111,118.853903 C471.658202,119.916733 469.636985,121.231479 468.069624,122.799981 C466.502262,124.368482 465.313419,126.014214 464.504933,127.733497 C463.696446,129.452781 463.292203,130.971635 463.292203,132.286381 C463.292203,134.309067 464.051078,135.32225 465.56699,135.32225 L482.703232,135.32225 L482.703232,149.891109 L465.56699,149.891109 C464.453484,149.891109 463.619272,150.271742 463.064357,151.031169 C462.509441,151.788757 462.230145,152.776196 462.230145,153.989808 C462.230145,155.506823 462.685838,157.253688 463.595385,159.226727 C464.504933,161.197927 465.870173,163.095575 467.689268,164.915993 C469.5102,166.736411 471.759263,168.255264 474.438294,169.470715 C476.847216,170.561127 479.601583,171.162417 482.703232,171.272745 L482.703232,189.19007 C476.457673,189.06687 470.84604,187.855097 465.870173,185.558429 C460.613172,183.129366 456.188545,179.865485 452.599967,175.768626 C449.009551,171.669927 446.280909,166.914775 444.410365,161.50133 C443.254596,158.16022 442.457135,154.690393 442.014304,151.097366 L442.014304,137.063599 C442.41671,133.608482 443.114949,130.27105 444.107182,127.049461 C445.775605,121.637856 448.32785,116.880864 451.765756,112.784005 C455.201824,108.687145 459.501503,105.423264 464.655605,102.996041 C469.774796,100.585366 475.790671,99.3699152 482.703232,99.353366 L482.703232,99.353366 Z M759.29386,163.702381 C759.29386,162.185366 758.889617,160.743742 758.08113,159.377509 C757.270806,158.011276 756.260198,156.823408 755.047468,155.810226 C753.8329,154.798882 752.493385,153.987969 751.028922,153.381163 C749.562621,152.776196 748.171657,152.470954 746.857866,152.470954 C745.441177,152.470954 744.125548,152.851587 742.914656,153.609175 C741.701926,154.366763 740.897114,155.661282 740.487359,157.479861 C740.191526,158.796447 739.625585,160.23807 738.818936,161.804733 C738.012287,163.371396 736.896943,164.868184 735.483929,166.282226 C734.069077,167.698106 732.272032,168.887814 730.098305,169.849509 C727.924579,170.811205 725.421945,171.291133 722.592242,171.291133 C716.324633,171.291133 711.420427,169.115826 707.88146,164.765211 C704.342493,160.414596 702.57301,153.583432 702.57301,144.275396 C702.57301,134.96736 704.342493,128.136196 707.88146,123.78742 C711.418589,119.438644 716.324633,117.261497 722.592242,117.261497 C725.421945,117.261497 727.902529,117.743264 730.022969,118.703121 C732.145246,119.662978 733.942292,120.854524 735.406755,122.270405 C736.871218,123.684447 738.012287,125.181235 738.818936,126.747897 C739.625585,128.31456 740.151102,129.767217 740.487359,131.072769 C740.959588,132.902381 741.826874,134.184029 742.989992,134.941617 C744.15311,135.701044 745.441177,136.079838 746.857866,136.079838 C748.272717,136.079838 749.715131,135.774596 751.179594,135.169629 C752.644058,134.564661 753.987248,133.751909 755.19814,132.742405 C756.409033,131.731061 757.397592,130.541354 758.156467,129.175121 C758.913504,127.810727 759.29386,126.367264 759.29386,124.85025 C759.29386,123.735933 758.608484,121.788638 757.246919,119.006524 C755.881679,116.22625 753.706115,113.365067 750.723902,110.432172 C747.743526,107.499276 743.923427,104.915754 739.274629,102.690799 C734.62583,100.467682 729.06381,99.3515272 722.592242,99.3515272 C716.625978,99.3515272 711.091519,100.414357 705.985191,102.540017 C700.878863,104.663838 696.454236,107.701545 692.714986,111.645784 C688.975735,115.590023 686.041296,120.324948 683.919019,125.83585 C681.798579,131.34859 680.734684,137.497557 680.734684,144.275396 C680.734684,151.055073 681.796741,157.204041 683.919019,162.716781 C686.041296,168.229521 688.973898,172.960769 692.714986,176.906847 C696.456074,180.852924 700.878863,183.886954 705.985191,186.012614 C711.091519,188.136435 716.625978,189.199264 722.592242,189.199264 C729.466216,189.199264 735.230358,188.086787 739.880994,185.859993 C744.531629,183.635038 748.298442,181.055193 751.179594,178.120459 C754.060747,175.187563 756.13525,172.326381 757.397592,169.546106 C758.659933,166.763993 759.29386,164.816697 759.29386,163.702381 L759.29386,163.702381 Z M671.87073,112.405211 C671.87073,109.369342 670.782948,106.761915 668.611059,104.588447 C666.437333,102.414978 663.833638,101.324566 660.799976,101.324566 C657.867374,101.324566 655.315129,102.413139 653.141402,104.588447 C650.967676,106.763754 649.881731,109.371181 649.881731,112.405211 L649.881731,176.300041 C649.881731,179.231097 650.943789,181.788876 653.066066,183.964184 C655.190181,186.139491 657.768151,187.226226 660.799976,187.226226 C663.833638,187.226226 666.437333,186.163396 668.611059,184.039575 C670.784786,181.913915 671.87073,179.33407 671.87073,176.300041 L671.87073,112.405211 Z M649.881731,78.409366 C649.881731,81.4433958 650.969513,84.0250794 653.141402,86.1489003 C655.315129,88.2727212 657.867374,89.335551 660.799976,89.335551 C663.833638,89.335551 666.437333,88.2727212 668.611059,86.1489003 C670.784786,84.0232406 671.87073,81.4433958 671.87073,78.409366 C671.87073,75.3734973 670.782948,72.7918137 668.611059,70.6698316 C666.437333,68.5441719 663.833638,67.4813421 660.799976,67.4813421 C657.867374,67.4813421 655.315129,68.5441719 653.141402,70.6698316 C650.969513,72.7918137 649.881731,75.3734973 649.881731,78.409366 L649.881731,78.409366 Z M637.074568,78.409366 C637.074568,75.3734973 635.981273,72.7881361 633.813059,70.6698316 C631.644845,68.5496884 629.037476,67.4813421 626.003813,67.4813421 C623.071212,67.4813421 620.511617,68.5496884 618.343402,70.6698316 C616.177026,72.7881361 615.083731,75.386369 615.083731,78.409366 L615.083731,176.300041 C615.083731,179.221903 616.145789,181.788876 618.268066,183.964184 C620.392181,186.139491 622.970151,187.226226 626.003813,187.226226 C629.037476,187.226226 631.639333,186.163396 633.813059,184.039575 C635.986786,181.913915 637.074568,179.33407 637.074568,176.300041 L637.074568,78.409366 Z M603.187953,158.542691 C603.187953,153.787539 601.898049,149.968339 599.320079,147.083253 C596.74211,144.200005 593.53205,141.872076 589.689901,140.103145 C585.847752,138.332375 581.702421,136.914656 577.253907,135.851826 C572.805393,134.790835 568.660061,133.779491 564.817912,132.817796 C560.975763,131.8561 557.765704,130.717879 555.187734,129.403133 C552.609764,128.086548 551.31986,126.216482 551.31986,123.78742 C551.31986,120.852685 552.635489,118.703121 555.26307,117.336888 C557.892489,115.970656 561.177885,115.288459 565.121095,115.288459 C566.94019,115.288459 568.786847,115.490727 570.657391,115.895264 C572.527935,116.299802 574.295581,116.932351 575.964003,117.792912 C577.632425,118.653473 579.150175,119.740208 580.515415,121.054954 C581.880655,122.3697 582.9666,123.989688 583.775086,125.911241 C584.28039,127.32896 585.088877,128.31456 586.200546,128.871718 C587.314053,129.427038 588.477171,129.706536 589.689901,129.706536 C590.80157,129.706536 591.938964,129.478524 593.102082,129.0225 C594.2652,128.568315 595.327258,127.961509 596.288255,127.202082 C597.247414,126.444494 598.032013,125.506703 598.638378,124.394226 C599.244743,123.281748 599.547926,122.068136 599.547926,120.751551 C599.547926,118.62773 598.713714,116.325545 597.045292,113.846835 C595.37687,111.368124 593.050633,109.065939 590.070257,106.942118 C587.086207,104.816459 583.471904,103.019945 579.225512,101.552578 C574.979119,100.08705 570.277034,99.3515272 565.121095,99.3515272 C560.066216,99.3515272 555.465192,100.00982 551.31986,101.324566 C547.174529,102.641151 543.611675,104.461569 540.627625,106.789497 C537.645411,109.115587 535.344899,111.949187 533.727926,115.288459 C532.110953,118.62773 531.300629,122.270405 531.300629,126.216482 C531.300629,131.173903 532.564808,135.119981 535.093166,138.052876 C537.621524,140.987611 540.75441,143.365187 544.495498,145.187444 C548.236586,147.007861 552.330469,148.449485 556.778983,149.512315 C561.227497,150.575145 565.323216,151.636136 569.064304,152.698966 C572.805393,153.761796 575.940116,155.052638 578.466637,156.569653 C580.994995,158.086667 582.259174,160.212327 582.259174,162.942954 C582.259174,164.664076 581.829206,166.155348 580.96927,167.422285 C580.111172,168.685545 578.997665,169.748375 577.632425,170.607097 C576.267185,171.467659 574.725548,172.125951 573.007514,172.580136 C571.28948,173.03616 569.569609,173.264172 567.849737,173.264172 C562.592736,173.264172 558.346344,171.947587 555.112398,169.318094 C551.876614,166.686763 549.399705,163.248196 547.679833,158.998715 C547.073468,157.479861 546.06286,156.367384 544.648008,155.659444 C543.231319,154.949664 541.663957,154.596614 539.945923,154.596614 C537.419403,154.596614 535.067441,155.304554 532.893715,156.720435 C530.719988,158.138154 529.634044,160.010059 529.634044,162.337987 C529.634044,165.068614 530.466417,168.027253 532.13484,171.215742 C533.803262,174.402393 536.256284,177.311384 539.490231,179.940876 C542.726015,182.572208 546.720674,184.773259 551.47237,186.544029 C556.224067,188.314799 561.683189,189.199264 567.849737,189.199264 C572.704332,189.199264 577.279631,188.542811 581.575635,187.226226 C585.873477,185.911479 589.614565,183.964184 592.7989,181.384339 C595.983235,178.802656 598.511593,175.617844 600.382137,171.822548 C602.252681,168.027253 603.187953,163.601247 603.187953,158.542691 L603.187953,158.542691 Z M482.703232,149.891109 L482.703232,135.32225 L500.144494,135.32225 C501.458284,135.32225 502.116099,134.360554 502.116099,132.439002 C502.116099,131.124256 501.73758,129.605402 500.978705,127.884279 C500.21983,126.164996 499.058549,124.519264 497.491188,122.952602 C495.923826,121.3841 493.926496,120.043611 491.499199,118.931133 C489.073739,117.818656 486.192587,117.261497 482.855742,117.261497 L482.703232,117.261497 L482.703232,99.353366 L482.855742,99.3515272 C489.628655,99.3515272 495.468133,100.644208 500.37234,103.224053 C505.274709,105.802059 509.320817,109.016291 512.505152,112.859396 C515.689487,116.704339 518.041448,120.852685 519.55736,125.304435 C521.073273,129.756184 521.832148,133.854882 521.832148,137.598691 C521.832148,141.140232 521.174334,144.073127 519.860543,146.401056 C518.546752,148.727145 516.624759,149.891109 514.098238,149.891109 L482.703232,149.891109 Z M482.703232,189.19007 L482.703232,171.272745 C483.052351,171.285617 483.406983,171.291133 483.765289,171.291133 C485.887567,171.291133 487.759948,171.063121 489.376922,170.607097 C490.993895,170.152912 492.511645,169.470715 493.926496,168.558667 C495.343186,167.648459 496.73415,166.458751 498.097552,164.993223 C499.462792,163.525856 501.013617,161.788184 502.722464,159.756303 C504.247563,157.943241 505.958248,157.025676 507.878403,157.025676 C509.092971,157.025676 510.305701,157.327241 511.518431,157.935885 C512.732998,158.542691 513.793218,159.353605 514.702766,160.363109 C515.612313,161.376291 516.373025,162.514512 516.97939,163.777772 C517.585755,165.04287 517.888938,166.333712 517.888938,167.648459 C517.888938,168.965044 517.207237,170.811205 515.841997,173.188781 C514.476757,175.566357 512.376529,177.943933 509.546826,180.321509 C506.715285,182.697247 503.178156,184.775097 498.931764,186.544029 C494.685371,188.314799 489.628655,189.199264 483.765289,189.199264 C483.40882,189.199264 483.056026,189.195587 482.703232,189.19007 L482.703232,189.19007 Z M807.435564,99.353366 L807.435564,117.261497 C804.163031,117.278047 801.305766,117.8113 798.867444,118.853903 C796.392372,119.914894 794.369318,121.231479 792.801956,122.799981 C791.234595,124.368482 790.045752,126.014214 789.237265,127.733497 C788.428779,129.452781 788.024535,130.971635 788.024535,132.286381 C788.024535,134.309067 788.785248,135.32225 790.299323,135.32225 L807.435564,135.32225 L807.435564,149.891109 L790.299323,149.891109 C789.185816,149.891109 788.349767,150.273581 787.796689,151.031169 C787.241773,151.786918 786.962478,152.776196 786.962478,153.989808 C786.962478,155.506823 787.420008,157.255527 788.327718,159.226727 C789.235428,161.196088 790.602505,163.095575 792.423438,164.915993 C794.242533,166.736411 796.491595,168.255264 799.170626,169.470715 C801.579549,170.561127 804.333916,171.162417 807.435564,171.272745 L807.435564,189.19007 C801.190005,189.06687 795.578373,187.853259 790.602505,185.558429 C785.347342,183.131205 780.920878,179.865485 777.3323,175.768626 C773.741884,171.669927 771.013241,166.914775 769.142697,161.50133 C767.272153,156.089724 766.336881,150.347133 766.336881,144.275396 C766.336881,138.205497 767.17293,132.461067 768.839515,127.049461 C770.5061,121.639694 773.06202,116.880864 776.498088,112.784005 C779.934157,108.688984 784.235673,105.421426 789.387938,102.996041 C794.505291,100.587205 800.524841,99.3699152 807.435564,99.353366 L807.435564,99.353366 Z M807.435564,149.891109 L807.435564,135.32225 L824.876826,135.32225 C826.186942,135.32225 826.848431,134.360554 826.848431,132.439002 C826.848431,131.124256 826.469912,129.605402 825.711037,127.884279 C824.954,126.164996 823.789044,124.519264 822.22352,122.952602 C820.657996,121.387778 818.656991,120.041772 816.231532,118.931133 C813.807909,117.820494 810.924919,117.261497 807.588074,117.261497 L807.435564,117.261497 L807.435564,99.353366 L807.588074,99.3515272 C814.362825,99.3515272 820.202303,100.644208 825.104672,103.224053 C830.007041,105.80022 834.05315,109.016291 837.237484,112.859396 C840.421819,116.704339 842.77378,120.852685 844.289693,125.304435 C845.805605,129.756184 846.56448,133.854882 846.56448,137.598691 C846.56448,141.140232 845.906666,144.073127 844.592875,146.401056 C843.279085,148.727145 841.357091,149.891109 838.830571,149.891109 L807.435564,149.891109 Z M807.435564,189.19007 L807.435564,171.272745 C807.786521,171.285617 808.139315,171.291133 808.497622,171.291133 C810.621737,171.291133 812.492281,171.063121 814.109254,170.607097 C815.72439,170.152912 817.245815,169.467038 818.658829,168.558667 C820.073681,167.650297 821.466483,166.456912 822.829885,164.993223 C824.193287,163.527694 825.747787,161.786345 827.454796,159.756303 C828.979896,157.946918 830.69058,157.025676 832.610736,157.025676 C833.825303,157.025676 835.038033,157.327241 836.252601,157.935885 C837.465331,158.542691 838.527388,159.353605 839.435098,160.363109 C840.344646,161.374453 841.107195,162.516351 841.711723,163.777772 C842.31625,165.041032 842.62127,166.333712 842.62127,167.648459 C842.62127,168.965044 841.939569,170.811205 840.574329,173.188781 C839.209089,175.566357 837.108862,177.945772 834.279158,180.321509 C831.451293,182.697247 827.908651,184.775097 823.664096,186.544029 C819.419541,188.31296 814.362825,189.199264 808.497622,189.199264 C808.141153,189.199264 807.788359,189.195587 807.435564,189.19007 L807.435564,189.19007 Z" id="Fill-1" fill="#FFFFFF"></path>
            <path d="M860.565448,115.024038 L864.003353,115.024038 L864.003353,103.049734 L864.047452,103.049734 L867.990662,115.024038 L870.612731,115.024038 L874.712126,103.049734 L874.756225,103.049734 L874.756225,115.024038 L878.192294,115.024038 L878.192294,99.4125755 L873.014304,99.4125755 L869.401839,109.599561 L869.35774,109.599561 L865.765487,99.4125755 L860.565448,99.4125755 L860.565448,115.024038 Z M850.935269,115.024038 L854.373175,115.024038 L854.373175,102.455799 L858.825364,102.455799 L858.825364,99.4125755 L846.484918,99.4125755 L846.484918,102.455799 L850.935269,102.455799 L850.935269,115.024038 Z" id="Fill-4" fill="#FFFFFF"></path>
            <g id="Group">
                <rect id="black-bg" fill="#000000" x="0" y="0" width="256" height="256" rx="57"></rect>
                <rect id="Rectangle-46" fill="#69B3E1" x="0" y="0" width="256" height="256" rx="57"></rect>
                <path d="M256,83 L256,56.9935387 C256,25.5116532 230.483124,0 199.006461,0 L56.9935387,0 C25.5116532,0 0,25.5168764 0,56.9935387 L0,83 L256,83 Z" id="Combined-Shape" fill="#2D3B53"></path>
                <rect id="Rectangle-46" fill-opacity="0.7" fill="url(#linearGradient-1)" style="mix-blend-mode: soft-light;" x="0" y="0" width="256" height="256" rx="57"></rect>
                <g id="Face" transform="translate(46.000000, 131.000000)" fill="#2D3B53">
                    <path d="M40.8926718,57.2300194 C53.1603392,64.6871775 67.6255687,68.8792134 82.0285596,68.8560095 C82.3242969,68.8555951 82.6204519,68.8539377 82.9161892,68.8497941 C97.6295372,68.6115396 111.395523,64.3834549 123.16403,57.2300194 C127.653973,54.5006589 129.360311,49.4886133 126.675284,44.842858 C123.742973,39.7690734 117.963982,39.9605057 112.880058,42.8812985 C103.882209,48.0487275 93.510936,51.1423066 82.4303948,51.2906459 C82.2963105,51.2923033 82.1626439,51.2927177 82.0285596,51.293132 C71.2938807,51.3353963 60.4318008,48.1978955 51.1774792,42.8812985 C46.0918838,39.9605057 40.3141462,39.7690734 37.381418,44.842858 C34.6963907,49.4886133 36.4027281,54.5006589 40.8926718,57.2300194" id="Fill-14"></path>
                    <path d="M147.849405,32.2075391 C156.693955,32.2075391 163.864332,25.0947104 163.864332,16.3211445 C163.864332,7.54716416 156.693955,0.434749883 147.849405,0.434749883 C139.004438,0.434749883 131.834479,7.54716416 131.834479,16.3211445 C131.834479,25.0947104 139.004438,32.2075391 147.849405,32.2075391" id="Fill-16"></path>
                    <path d="M16.3134358,32.2075391 C25.1584036,32.2075391 32.3283621,25.0947104 32.3283621,16.3211445 C32.3283621,7.54716416 25.1584036,0.434749883 16.3134358,0.434749883 C7.46846805,0.434749883 0.298509533,7.54716416 0.298509533,16.3211445 C0.298509533,25.0947104 7.46846805,32.2075391 16.3134358,32.2075391" id="Fill-18"></path>
                </g>
                <path d="M185.836372,62.9989858 L185.83569,63 L211.259864,63 L212.907989,60.96814 L227.998977,42.3669857 L228,42.3659715 L220.430971,32.7053392 L211.259864,21 L185.83569,21 L202.575826,42.3659715 L193.117183,54.0246557 L185.836372,62.9989858 Z M133.224578,62.9989858 L133.223895,63 L158.647728,63 L158.648751,62.9989858 L175.387183,42.3666476 L175.388206,42.3659715 L168.872449,34.0498829 L158.647728,21 L133.224236,21 L133.223895,21 L149.963691,42.3659715 L139.643466,55.0869026 L133.224578,62.9989858 Z M80.6124764,62.9989858 L80.6117942,63 L106.035968,63 L106.03665,62.9989858 L122.775422,42.3666476 L122.776105,42.3659715 L117.600473,35.7602289 L106.035968,21 L80.6124764,21 L80.6117942,21 L97.3519307,42.3659715 L86.1766045,56.1406976 L80.6124764,62.9989858 Z M28.0006822,62.9989858 L28,63 L53.4238329,63 L53.4248561,62.9989858 L70.1636283,42.3663095 L70.1643104,42.3659715 L65.5924001,36.5307129 L53.4238329,21 L28.0006822,21 L28,21 L31.6874756,25.7064098 L44.7397954,42.3659715 L28.0006822,62.9989858 Z" id="White-Elements" fill="#FFFFFF"></path>
            </g>
        </g>
    </g>
</svg>